<mxfile host="app.diagrams.net" modified="2023-10-27T23:16:54.848Z" agent="Mozilla/5.0 (Windows NT 10.0; Win64; x64) AppleWebKit/537.36 (KHTML, like Gecko) Chrome/118.0.0.0 Safari/537.36" etag="ELJ-nGIgTdiQ_wBg_dkt" version="22.0.8" type="device">
  <diagram name="Page-1" id="HbD5x58RGjZxOZBmNG6a">
    <mxGraphModel dx="521" dy="579" grid="1" gridSize="10" guides="1" tooltips="1" connect="1" arrows="1" fold="1" page="1" pageScale="1" pageWidth="1169" pageHeight="827" math="0" shadow="0">
      <root>
        <mxCell id="0" />
        <mxCell id="1" parent="0" />
        <mxCell id="Wz-BAnRxG9ZeQTsMre8E-13" value="" style="rounded=0;whiteSpace=wrap;html=1;fontSize=16;" vertex="1" parent="1">
          <mxGeometry width="580" height="240" as="geometry" />
        </mxCell>
        <mxCell id="Wz-BAnRxG9ZeQTsMre8E-6" value="Inputs" style="swimlane;childLayout=stackLayout;horizontal=1;startSize=50;horizontalStack=0;rounded=1;fontSize=14;fontStyle=0;strokeWidth=2;resizeParent=0;resizeLast=1;shadow=0;dashed=0;align=center;arcSize=4;whiteSpace=wrap;html=1;" vertex="1" parent="1">
          <mxGeometry x="10" y="10" width="190" height="200" as="geometry" />
        </mxCell>
        <mxCell id="Wz-BAnRxG9ZeQTsMre8E-7" value="+ SliderValue(gridChosenSize)&lt;br&gt;+ Color Picker&lt;br&gt;+ Color Rainbow&lt;br&gt;+ Darkening&lt;br&gt;+ Lightening&amp;nbsp;&lt;br&gt;+ Eraser&amp;nbsp;&lt;br&gt;+ Clear Table&amp;nbsp;&lt;br&gt;+ Capture&lt;br&gt;+ grid:hover" style="align=left;strokeColor=none;fillColor=none;spacingLeft=4;fontSize=12;verticalAlign=top;resizable=0;rotatable=0;part=1;html=1;" vertex="1" parent="Wz-BAnRxG9ZeQTsMre8E-6">
          <mxGeometry y="50" width="190" height="150" as="geometry" />
        </mxCell>
        <mxCell id="Wz-BAnRxG9ZeQTsMre8E-10" style="edgeStyle=none;curved=1;rounded=0;orthogonalLoop=1;jettySize=auto;html=1;exitX=1;exitY=0.5;exitDx=0;exitDy=0;fontSize=12;startSize=8;endSize=8;entryX=0;entryY=0.5;entryDx=0;entryDy=0;" edge="1" parent="1" source="Wz-BAnRxG9ZeQTsMre8E-8" target="Wz-BAnRxG9ZeQTsMre8E-11">
          <mxGeometry relative="1" as="geometry">
            <mxPoint x="390" y="110" as="targetPoint" />
          </mxGeometry>
        </mxCell>
        <mxCell id="Wz-BAnRxG9ZeQTsMre8E-12" value="response" style="edgeLabel;html=1;align=center;verticalAlign=middle;resizable=0;points=[];fontSize=16;" vertex="1" connectable="0" parent="Wz-BAnRxG9ZeQTsMre8E-10">
          <mxGeometry x="-0.045" y="1" relative="1" as="geometry">
            <mxPoint as="offset" />
          </mxGeometry>
        </mxCell>
        <mxCell id="Wz-BAnRxG9ZeQTsMre8E-8" value="Js Script" style="rounded=1;whiteSpace=wrap;html=1;fontSize=16;" vertex="1" parent="1">
          <mxGeometry x="240" y="80" width="120" height="60" as="geometry" />
        </mxCell>
        <mxCell id="Wz-BAnRxG9ZeQTsMre8E-9" style="edgeStyle=none;curved=1;rounded=0;orthogonalLoop=1;jettySize=auto;html=1;exitX=1;exitY=0.5;exitDx=0;exitDy=0;entryX=0;entryY=0.5;entryDx=0;entryDy=0;fontSize=12;startSize=8;endSize=8;" edge="1" parent="1" source="Wz-BAnRxG9ZeQTsMre8E-7" target="Wz-BAnRxG9ZeQTsMre8E-8">
          <mxGeometry relative="1" as="geometry" />
        </mxCell>
        <mxCell id="Wz-BAnRxG9ZeQTsMre8E-11" value="UI" style="rounded=1;whiteSpace=wrap;html=1;fontSize=16;" vertex="1" parent="1">
          <mxGeometry x="440" y="80" width="120" height="60" as="geometry" />
        </mxCell>
        <mxCell id="Wz-BAnRxG9ZeQTsMre8E-14" value="buildGrid()" style="rounded=1;whiteSpace=wrap;html=1;fontSize=16;" vertex="1" parent="1">
          <mxGeometry x="160" y="280" width="120" height="60" as="geometry" />
        </mxCell>
        <mxCell id="Wz-BAnRxG9ZeQTsMre8E-16" style="edgeStyle=none;curved=1;rounded=0;orthogonalLoop=1;jettySize=auto;html=1;exitX=1;exitY=0.5;exitDx=0;exitDy=0;entryX=0;entryY=0.5;entryDx=0;entryDy=0;fontSize=12;startSize=8;endSize=8;" edge="1" parent="1" target="Wz-BAnRxG9ZeQTsMre8E-14">
          <mxGeometry relative="1" as="geometry">
            <mxPoint x="120" y="310" as="sourcePoint" />
          </mxGeometry>
        </mxCell>
        <mxCell id="Wz-BAnRxG9ZeQTsMre8E-18" value="SliderValue" style="text;html=1;align=center;verticalAlign=middle;resizable=0;points=[];autosize=1;strokeColor=none;fillColor=none;fontSize=16;" vertex="1" parent="1">
          <mxGeometry x="30" y="292" width="100" height="30" as="geometry" />
        </mxCell>
        <mxCell id="Wz-BAnRxG9ZeQTsMre8E-19" value="setColor()" style="rounded=1;whiteSpace=wrap;html=1;fontSize=16;" vertex="1" parent="1">
          <mxGeometry x="460" y="280" width="120" height="60" as="geometry" />
        </mxCell>
        <mxCell id="Wz-BAnRxG9ZeQTsMre8E-21" style="edgeStyle=none;curved=1;rounded=0;orthogonalLoop=1;jettySize=auto;html=1;entryX=0;entryY=0.5;entryDx=0;entryDy=0;fontSize=12;startSize=8;endSize=8;" edge="1" parent="1" source="Wz-BAnRxG9ZeQTsMre8E-20" target="Wz-BAnRxG9ZeQTsMre8E-19">
          <mxGeometry relative="1" as="geometry" />
        </mxCell>
        <mxCell id="Wz-BAnRxG9ZeQTsMre8E-20" value="Color Picker" style="text;html=1;strokeColor=none;fillColor=none;align=center;verticalAlign=middle;whiteSpace=wrap;rounded=0;fontSize=16;" vertex="1" parent="1">
          <mxGeometry x="360" y="295" width="60" height="30" as="geometry" />
        </mxCell>
        <mxCell id="Wz-BAnRxG9ZeQTsMre8E-24" style="edgeStyle=none;curved=1;rounded=0;orthogonalLoop=1;jettySize=auto;html=1;exitX=1;exitY=0.5;exitDx=0;exitDy=0;entryX=0;entryY=0.5;entryDx=0;entryDy=0;fontSize=12;startSize=8;endSize=8;" edge="1" parent="1" source="Wz-BAnRxG9ZeQTsMre8E-22" target="Wz-BAnRxG9ZeQTsMre8E-19">
          <mxGeometry relative="1" as="geometry" />
        </mxCell>
        <mxCell id="Wz-BAnRxG9ZeQTsMre8E-22" value="Color Rainbow" style="text;html=1;strokeColor=none;fillColor=none;align=center;verticalAlign=middle;whiteSpace=wrap;rounded=0;fontSize=16;" vertex="1" parent="1">
          <mxGeometry x="360" y="340" width="60" height="30" as="geometry" />
        </mxCell>
        <mxCell id="Wz-BAnRxG9ZeQTsMre8E-25" value="clearTable()" style="rounded=1;whiteSpace=wrap;html=1;fontSize=16;" vertex="1" parent="1">
          <mxGeometry x="160" y="384" width="120" height="60" as="geometry" />
        </mxCell>
        <mxCell id="Wz-BAnRxG9ZeQTsMre8E-27" style="edgeStyle=none;curved=1;rounded=0;orthogonalLoop=1;jettySize=auto;html=1;exitX=1;exitY=0.5;exitDx=0;exitDy=0;entryX=0;entryY=0.5;entryDx=0;entryDy=0;fontSize=12;startSize=8;endSize=8;" edge="1" parent="1" source="Wz-BAnRxG9ZeQTsMre8E-26" target="Wz-BAnRxG9ZeQTsMre8E-19">
          <mxGeometry relative="1" as="geometry" />
        </mxCell>
        <mxCell id="Wz-BAnRxG9ZeQTsMre8E-26" value="Eraser" style="text;html=1;strokeColor=none;fillColor=none;align=center;verticalAlign=middle;whiteSpace=wrap;rounded=0;fontSize=16;" vertex="1" parent="1">
          <mxGeometry x="360" y="250" width="60" height="30" as="geometry" />
        </mxCell>
        <mxCell id="Wz-BAnRxG9ZeQTsMre8E-29" style="edgeStyle=none;curved=1;rounded=0;orthogonalLoop=1;jettySize=auto;html=1;fontSize=12;startSize=8;endSize=8;" edge="1" parent="1" source="Wz-BAnRxG9ZeQTsMre8E-28" target="Wz-BAnRxG9ZeQTsMre8E-25">
          <mxGeometry relative="1" as="geometry" />
        </mxCell>
        <mxCell id="Wz-BAnRxG9ZeQTsMre8E-28" value="Clear Table" style="text;html=1;strokeColor=none;fillColor=none;align=center;verticalAlign=middle;whiteSpace=wrap;rounded=0;fontSize=16;" vertex="1" parent="1">
          <mxGeometry x="50" y="400" width="60" height="30" as="geometry" />
        </mxCell>
        <mxCell id="Wz-BAnRxG9ZeQTsMre8E-33" value="colorGrid()" style="rounded=1;whiteSpace=wrap;html=1;fontSize=16;" vertex="1" parent="1">
          <mxGeometry x="720" y="277" width="120" height="60" as="geometry" />
        </mxCell>
        <mxCell id="Wz-BAnRxG9ZeQTsMre8E-35" style="edgeStyle=none;curved=1;rounded=0;orthogonalLoop=1;jettySize=auto;html=1;entryX=0;entryY=0.5;entryDx=0;entryDy=0;fontSize=12;startSize=8;endSize=8;" edge="1" parent="1" source="Wz-BAnRxG9ZeQTsMre8E-34" target="Wz-BAnRxG9ZeQTsMre8E-33">
          <mxGeometry relative="1" as="geometry" />
        </mxCell>
        <mxCell id="Wz-BAnRxG9ZeQTsMre8E-34" value="grid:hover" style="text;html=1;strokeColor=none;fillColor=none;align=center;verticalAlign=middle;whiteSpace=wrap;rounded=0;fontSize=16;" vertex="1" parent="1">
          <mxGeometry x="620" y="292" width="60" height="30" as="geometry" />
        </mxCell>
        <mxCell id="Wz-BAnRxG9ZeQTsMre8E-37" style="edgeStyle=none;curved=1;rounded=0;orthogonalLoop=1;jettySize=auto;html=1;exitX=0.5;exitY=0;exitDx=0;exitDy=0;entryX=0.5;entryY=1;entryDx=0;entryDy=0;fontSize=12;startSize=8;endSize=8;" edge="1" parent="1" source="Wz-BAnRxG9ZeQTsMre8E-36" target="Wz-BAnRxG9ZeQTsMre8E-19">
          <mxGeometry relative="1" as="geometry" />
        </mxCell>
        <mxCell id="Wz-BAnRxG9ZeQTsMre8E-36" value="Lightening" style="text;html=1;strokeColor=none;fillColor=none;align=center;verticalAlign=middle;whiteSpace=wrap;rounded=0;fontSize=16;" vertex="1" parent="1">
          <mxGeometry x="490" y="354" width="60" height="30" as="geometry" />
        </mxCell>
        <mxCell id="Wz-BAnRxG9ZeQTsMre8E-39" style="edgeStyle=none;curved=1;rounded=0;orthogonalLoop=1;jettySize=auto;html=1;exitX=0.5;exitY=1;exitDx=0;exitDy=0;entryX=0.5;entryY=0;entryDx=0;entryDy=0;fontSize=12;startSize=8;endSize=8;" edge="1" parent="1" source="Wz-BAnRxG9ZeQTsMre8E-38" target="Wz-BAnRxG9ZeQTsMre8E-19">
          <mxGeometry relative="1" as="geometry" />
        </mxCell>
        <mxCell id="Wz-BAnRxG9ZeQTsMre8E-38" value="Darkening" style="text;html=1;strokeColor=none;fillColor=none;align=center;verticalAlign=middle;whiteSpace=wrap;rounded=0;fontSize=16;" vertex="1" parent="1">
          <mxGeometry x="520" y="240" width="60" height="30" as="geometry" />
        </mxCell>
      </root>
    </mxGraphModel>
  </diagram>
</mxfile>
